<svg xmlns="http://www.w3.org/2000/svg" width="45" height="28" viewBox="0 0 45 28">
  <path d="M4.1936 2.5C3.05085 2.5 2.1132 3.4375 2.1132 4.5834V23.4166C2.1132 24.5625 3.05085 25.5 4.1936 25.5H40.8064C41.9492 25.5 42.8868 24.5625 42.8868 23.4166V4.5834C42.8868 3.4375 41.9492 2.5 40.8064 2.5H4.1936Z" fill="black"/>
  <path d="M7.80993 8.21484C8.21868 8.21484 8.58643 8.31641 8.91318 8.51953C9.24018 8.72266 9.48993 9.01172 9.66243 9.38672C9.83493 9.76172 9.92143 10.1973 9.92143 10.6934C9.92143 11.1895 9.83493 11.625 9.66243 12C9.48993 12.375 9.24018 12.6641 8.91318 12.8672C8.58643 13.0703 8.21868 13.1719 7.80993 13.1719C7.53993 13.1719 7.29018 13.1211 7.06068 13.0195C6.83118 12.918 6.63868 12.7734 6.48368 12.5859V14.7422H5.62143V8.29688H6.44568V8.88281C6.60043 8.6875 6.79268 8.53516 7.02243 8.42578C7.25243 8.28516 7.51618 8.21484 7.80993 8.21484ZM7.67243 9.01172C7.42243 9.01172 7.19993 9.07422 7.00493 9.19922C6.80993 9.32422 6.65493 9.49609 6.53993 9.71484C6.42493 9.93359 6.36743 10.1875 6.36743 10.4766C6.36743 10.7656 6.42493 11.0195 6.53993 11.2383C6.65493 11.457 6.80993 11.6289 7.00493 11.7539C7.19993 11.8789 7.42243 11.9414 7.67243 11.9414C7.92243 11.9414 8.14493 11.8789 8.33993 11.7539C8.53493 11.6289 8.68993 11.457 8.80493 11.2383C8.91993 11.0195 8.97743 10.7656 8.97743 10.4766C8.97743 10.1875 8.91993 9.93359 8.80493 9.71484C8.68993 9.49609 8.53493 9.32422 8.33993 9.19922C8.14493 9.07422 7.92243 9.01172 7.67243 9.01172Z" fill="white"/>
  <path d="M13.2241 8.21875C13.6491 8.21875 14.0249 8.3125 14.3511 8.5C14.6774 8.68359 14.9309 8.93359 15.1111 9.25C15.2914 9.5625 15.3816 9.91797 15.3816 10.3164V13.0898H14.5194V10.4336C14.5194 9.99609 14.4149 9.66797 14.2059 9.44922C13.9969 9.22656 13.7111 9.11523 13.3491 9.11523C12.9834 9.11523 12.6948 9.22656 12.4829 9.44922C12.2749 9.66797 12.1709 9.99609 12.1709 10.4336V13.0898H11.3086V8.29688H12.1326V8.875C12.2834 8.67969 12.4754 8.52734 12.7084 8.41797C12.9454 8.30469 13.2006 8.24805 13.4751 8.21875H13.2241Z" fill="white"/>
  <path d="M18.2202 13.1719C17.8252 13.1719 17.4671 13.0703 17.1457 12.8672C16.8284 12.6641 16.5787 12.375 16.3967 12C16.2187 11.625 16.1297 11.1895 16.1297 10.6934C16.1297 10.1973 16.2187 9.76172 16.3967 9.38672C16.5787 9.01172 16.8284 8.72266 17.1457 8.51953C17.4671 8.31641 17.8252 8.21484 18.2202 8.21484C18.6152 8.21484 18.9687 8.31641 19.2807 8.51953C19.5927 8.72266 19.8369 9.01172 20.0132 9.38672C20.1937 9.76172 20.2839 10.1973 20.2839 10.6934C20.2839 11.1895 20.1937 11.625 20.0132 12C19.8369 12.375 19.5927 12.6641 19.2807 12.8672C18.9687 13.0703 18.6152 13.1719 18.2202 13.1719ZM18.2202 12.4258C18.4702 12.4258 18.6927 12.3594 18.8877 12.2266C19.0827 12.0898 19.2339 11.9023 19.3412 11.6641C19.4487 11.4258 19.5024 11.1445 19.5024 10.8203C19.5024 10.5 19.4487 10.2188 19.3412 9.97656C19.2339 9.73438 19.0827 9.54297 18.8877 9.40234C18.6927 9.25781 18.4702 9.18555 18.2202 9.18555C17.9702 9.18555 17.7477 9.25781 17.5527 9.40234C17.3577 9.54297 17.2064 9.73438 17.0991 9.97656C16.9917 10.2188 16.9379 10.5 16.9379 10.8203C16.9379 11.1445 16.9917 11.4258 17.0991 11.6641C17.2064 11.9023 17.3577 12.0898 17.5527 12.2266C17.7477 12.3594 17.9702 12.4258 18.2202 12.4258Z" fill="white"/>
  <path d="M23.1823 13.1719C22.7912 13.1719 22.4331 13.0703 22.1081 12.8672C21.7872 12.6641 21.534 12.375 21.3487 12C21.1675 11.6211 21.0769 11.1895 21.0769 10.7031C21.0769 10.207 21.1675 9.77539 21.3487 9.40039C21.534 9.02539 21.7872 8.73438 22.1081 8.52734C22.4331 8.32031 22.7912 8.21875 23.1823 8.21875C23.4523 8.21875 23.698 8.26953 23.9194 8.37109C24.1448 8.46875 24.3331 8.58984 24.4839 8.73438C24.6386 8.87891 24.7487 9.03125 24.8131 9.19141L24.1628 9.5C24.0788 9.34766 23.9428 9.20703 23.7628 9.07812C23.5788 8.94922 23.3628 8.88477 23.1151 8.88477C22.8651 8.88477 22.6425 8.95312 22.4476 9.08984C22.2526 9.22266 22.0983 9.40625 21.9909 9.64062C21.8835 9.875 21.8323 10.1484 21.8323 10.457C21.8323 10.7695 21.8835 11.043 21.9909 11.2773C22.0983 11.5117 22.2526 11.6953 22.4476 11.8281C22.6425 11.9609 22.8651 12.0273 23.1151 12.0273C23.3628 12.0273 23.5788 11.9648 23.7628 11.8398C23.9428 11.7109 24.0788 11.5703 24.1628 11.418L24.8131 11.7344C24.7487 11.8906 24.6386 12.0391 24.4839 12.1797C24.3331 12.3203 24.1448 12.4414 23.9194 12.543C23.698 12.6406 23.4523 12.6914 23.1823 12.6914V13.1719Z" fill="white"/>
  <path d="M26.862 13.1719C26.5425 13.1719 26.257 13.1094 26.0034 12.9844C25.7501 12.8594 25.5502 12.6914 25.4035 12.4805C25.2569 12.2656 25.1792 12.0273 25.1698 11.7656H25.9792C25.994 11.9297 26.0675 12.0781 26.1995 12.2109C26.3355 12.3438 26.53 12.4102 26.7835 12.4102C27.0175 12.4102 27.1987 12.3555 27.3277 12.2461C27.4605 12.1328 27.5269 11.9961 27.5269 11.8359C27.5269 11.668 27.4558 11.543 27.3136 11.4609C27.1753 11.3789 26.9519 11.3008 26.6433 11.2266C26.3503 11.168 26.1058 11.1016 25.9089 11.0273C25.7159 10.9531 25.549 10.8438 25.4085 10.6992C25.2717 10.5508 25.2034 10.3555 25.2034 10.1133C25.2034 9.89453 25.2675 9.69531 25.3957 9.51562C25.5277 9.33594 25.7081 9.19727 25.9362 9.09961C26.1683 9.00195 26.4308 8.95312 26.7238 8.95312C27.162 8.95312 27.5128 9.07422 27.7761 9.31641C28.0433 9.55469 28.1909 9.87109 28.2187 10.2656H27.4327C27.4128 10.0938 27.3433 9.95312 27.2261 9.84375C27.1089 9.73438 26.9378 9.67969 26.7132 9.67969C26.507 9.67969 26.343 9.73047 26.2218 9.83203C26.1003 9.92969 26.0397 10.0586 26.0397 10.2188C26.0397 10.3555 26.0855 10.4688 26.1768 10.5586C26.2722 10.6445 26.387 10.7148 26.5219 10.7695C26.6609 10.8203 26.8495 10.8789 27.0879 10.9453C27.3644 11.0156 27.594 11.0898 27.7761 11.168C27.9581 11.2422 28.1128 11.3477 28.2398 11.4844C28.3667 11.6211 28.4316 11.8047 28.435 12.0352C28.435 12.2656 28.368 12.4707 28.2339 12.6504C28.1039 12.8301 27.9187 12.9707 27.6781 13.0723C27.4378 13.1719 27.1647 13.1719 26.862 13.1719Z" fill="white"/>
  <path d="M30.0051 13.1719C29.8234 13.1719 29.6609 13.1289 29.5176 13.043C29.3742 12.9531 29.2582 12.832 29.1699 12.6797C29.0852 12.5273 29.043 12.3574 29.043 12.1699V9.0625H28.3223V8.29688H29.043V7.04688H29.9051V8.29688H30.9285V9.0625H29.9051V12.0742C29.9051 12.2031 29.9395 12.3008 30.0082 12.3672C30.0809 12.4297 30.1902 12.4609 30.3363 12.4609H30.8887V13.1719H30.0051Z" fill="white"/>
  <path d="M32.1566 8.37891C32.0801 7.85938 32.032 7.33594 32.032 6.80859H32.8566C32.8566 7.29688 32.8957 7.77734 32.9746 8.25H34.4746L34.4688 7.02734C34.4246 6.60156 34.2129 6.27344 33.8395 6.04297C33.4703 5.8125 32.9512 5.69727 32.2832 5.69727C31.5816 5.69727 31.043 5.83008 30.6672 6.0957C30.2914 6.35742 30.0777 6.71094 30.0262 7.15625C30.0137 7.28906 30.0074 7.45703 30.0074 7.66016C30.0074 7.85938 30.0074 8.11328 30.0074 8.42188H28.4785C28.4473 7.94531 28.4316 7.46094 28.4316 6.96875C28.4316 6.47266 28.4414 6.11328 28.4609 5.89062C28.543 4.95312 29.0008 4.24609 29.8332 3.76953C30.6699 3.29297 31.7949 3.05469 33.207 3.05469C34.625 3.05469 35.6883 3.32422 36.3969 3.86328C37.1094 4.39844 37.4785 5.13672 37.5047 6.07812C37.5086 6.29688 37.5105 6.70312 37.5105 7.29688C37.5105 7.88672 37.486 8.24219 37.4375 8.37891H32.1566Z" fill="white"/>
  <path d="M38.1688 9.39844C38.1688 9.29297 38.1973 9.19922 38.2543 9.11719C38.3152 9.0293 38.3938 8.95898 38.4895 8.90625C38.5891 8.84961 38.6953 8.82227 38.809 8.82227C38.9227 8.82227 39.0281 8.84961 39.1258 8.90625C39.2234 8.95898 39.3012 9.0293 39.3582 9.11719C39.4191 9.19922 39.4496 9.29297 39.4496 9.39844C39.4496 9.49609 39.4191 9.58789 39.3582 9.67383C39.3012 9.75586 39.2234 9.82031 39.1258 9.86719C39.0281 9.91406 38.9227 9.9375 38.809 9.9375C38.6953 9.9375 38.5891 9.91406 38.4895 9.86719C38.3938 9.82031 38.3152 9.75586 38.2543 9.67383C38.1973 9.58789 38.1688 9.49609 38.1688 9.39844Z" fill="white"/>
  <path d="M13.0262 17.0117C13.5379 17.0117 14.0496 16.8717 14.5613 16.5917C14.5613 15.5717 13.9879 15.0217 12.7996 15.0217C12.0863 15.0117 11.3913 15.3817 11.0646 15.9217C9.91963 19.3417 12.8379 22.1317 16.4913 22.1317C20.0879 22.1317 23.0529 19.3417 21.9079 15.9217C21.5813 15.3817 20.8863 15.0117 20.1729 15.0217C18.9846 15.0217 18.4113 15.5717 18.4113 16.5917C18.9229 16.8717 19.4346 17.0117 19.9463 17.0117C20.9129 17.0117 21.6346 17.7717 21.4629 18.7217C21.1746 20.4317 19.1379 21.2917 16.4829 21.2917C13.8346 21.2917 11.7913 20.4317 11.5113 18.7217C11.3413 17.7717 12.0629 17.0117 13.0296 17.0117H13.0262Z" fill="white"/>
</svg> 